<svg xmlns="http://www.w3.org/2000/svg" width="113" height="13" viewBox="0 0 113 13">
    <g fill="none">
        <path fill="#007AFF" d="M5.68 11.912c.965 0 1.801-.156 2.508-.468.707-.312 1.295-.775 1.764-1.388L8.88 8.928c-.059-.059-.12-.1-.184-.124-.064-.024-.128-.036-.192-.036-.08 0-.157.017-.232.052-.075.035-.144.079-.208.132-.16.139-.319.255-.476.348-.157.093-.323.17-.496.228-.173.059-.361.1-.564.124-.203.024-.427.036-.672.036-.427 0-.827-.083-1.2-.248-.373-.165-.7-.407-.98-.724s-.501-.708-.664-1.172c-.163-.464-.244-.995-.244-1.592 0-.57.081-1.085.244-1.544.163-.459.39-.85.68-1.172.29-.323.639-.57 1.044-.744.405-.173.853-.26 1.344-.26.283 0 .53.021.74.064.21.043.395.095.552.156.157.061.293.128.408.2l.316.2c.096.061.187.113.272.156.085.043.176.064.272.064.144 0 .256-.03.336-.092.08-.061.15-.13.208-.204l.912-1.224c-.219-.23-.47-.439-.752-.628-.283-.19-.592-.352-.928-.488C8.08.3 7.719.193 7.332.116 6.945.039 6.533 0 6.096 0c-.901 0-1.725.147-2.472.44-.747.293-1.388.704-1.924 1.232S.747 2.828.448 3.556C.149 4.284 0 5.083 0 5.952c0 .853.13 1.644.392 2.372.261.728.636 1.357 1.124 1.888.488.53 1.083.947 1.784 1.248.701.301 1.495.452 2.38.452zm11.76 0c.907 0 1.732-.152 2.476-.456.744-.304 1.38-.724 1.908-1.26s.937-1.167 1.228-1.892c.29-.725.436-1.51.436-2.352 0-.837-.145-1.619-.436-2.344-.29-.725-.7-1.355-1.228-1.888-.528-.533-1.164-.953-1.908-1.26C19.172.153 18.346 0 17.44 0c-.907 0-1.733.152-2.48.456-.747.304-1.385.723-1.916 1.256-.53.533-.941 1.163-1.232 1.888-.29.725-.436 1.51-.436 2.352 0 .843.145 1.627.436 2.352.29.725.701 1.356 1.232 1.892.53.536 1.17.956 1.916 1.26.747.304 1.573.456 2.48.456zm0-2.24c-.523 0-.988-.084-1.396-.252-.408-.168-.752-.412-1.032-.732s-.495-.71-.644-1.172c-.15-.461-.224-.983-.224-1.564 0-.576.075-1.095.224-1.556.15-.461.364-.852.644-1.172.28-.32.624-.565 1.032-.736.408-.17.873-.256 1.396-.256.517 0 .979.085 1.384.256.405.17.748.416 1.028.736s.495.71.644 1.172c.15.461.224.98.224 1.556 0 .581-.075 1.103-.224 1.564-.15.461-.364.852-.644 1.172-.28.32-.623.564-1.028.732-.405.168-.867.252-1.384.252zm13.824 2.112L35.936.128h-2.192c-.224 0-.413.06-.568.18-.155.12-.259.255-.312.404l-2.24 6.24c-.096.272-.193.568-.292.888-.099.32-.185.656-.26 1.008-.09-.352-.188-.688-.292-1.008-.104-.32-.207-.616-.308-.888L27.216.712c-.064-.176-.17-.317-.32-.424-.15-.107-.341-.16-.576-.16h-2.176l4.672 11.656h2.448zm9.392 0V.128h-2.72v11.656h2.72zm7.488 0c.907 0 1.732-.145 2.476-.436.744-.29 1.38-.696 1.908-1.216s.937-1.136 1.228-1.848c.29-.712.436-1.49.436-2.332 0-.837-.145-1.612-.436-2.324-.29-.712-.7-1.327-1.228-1.844C52 1.267 51.364.861 50.62.568c-.744-.293-1.57-.44-2.476-.44h-4.528v11.656h4.528zm0-2.08h-1.808V2.208h1.808c.517 0 .979.087 1.384.26.405.173.748.421 1.028.744s.495.716.644 1.18c.15.464.224.984.224 1.56 0 .581-.075 1.104-.224 1.568-.15.464-.364.857-.644 1.18-.28.323-.623.57-1.028.744-.405.173-.867.26-1.384.26z" transform="translate(.288 .216)"/>
        <path fill="#000" fill-opacity=".8" d="M57.024 11.904c.139 0 .27-.025.392-.076.123-.05.23-.121.32-.212.09-.09.161-.196.212-.316.05-.12.076-.252.076-.396 0-.139-.025-.27-.076-.392-.05-.123-.121-.23-.212-.32-.09-.09-.197-.163-.32-.216-.123-.053-.253-.08-.392-.08s-.27.027-.392.08c-.123.053-.228.125-.316.216-.088.09-.157.197-.208.32-.05.123-.076.253-.076.392 0 .144.025.276.076.396.05.12.12.225.208.316.088.09.193.161.316.212.123.05.253.076.392.076zm7.88.008c.944 0 1.75-.152 2.42-.456.67-.304 1.239-.728 1.708-1.272l-.608-.664c-.07-.07-.147-.104-.232-.104-.085 0-.173.04-.264.12-.203.181-.404.337-.604.468-.2.13-.416.239-.648.324-.232.085-.484.148-.756.188-.272.04-.579.06-.92.06-.56 0-1.083-.101-1.568-.304-.485-.203-.905-.497-1.26-.884s-.635-.86-.84-1.42c-.205-.56-.308-1.197-.308-1.912 0-.693.103-1.32.308-1.88.205-.56.492-1.035.86-1.424.368-.39.807-.69 1.316-.9.51-.21 1.07-.316 1.684-.316.341 0 .643.025.904.076.261.05.49.113.688.188.197.075.368.155.512.24.144.085.27.165.376.24.107.075.199.137.276.188.077.05.15.076.22.076.09 0 .16-.017.208-.052.048-.035.09-.079.128-.132l.504-.712C68.533 1.2 67.991.845 67.38.584 66.77.323 66.043.192 65.2.192c-.853 0-1.633.143-2.34.428-.707.285-1.313.687-1.82 1.204-.507.517-.9 1.136-1.18 1.856-.28.72-.42 1.512-.42 2.376 0 .864.13 1.656.392 2.376.261.72.63 1.337 1.104 1.852.475.515 1.048.915 1.72 1.2.672.285 1.421.428 2.248.428zm9.224-.016c.592 0 1.127-.097 1.604-.292.477-.195.883-.473 1.216-.836.333-.363.59-.8.768-1.312.179-.512.268-1.088.268-1.728 0-.635-.09-1.21-.268-1.724-.179-.515-.435-.953-.768-1.316-.333-.363-.739-.643-1.216-.84-.477-.197-1.012-.296-1.604-.296-.592 0-1.127.099-1.604.296-.477.197-.884.477-1.22.84-.336.363-.595.801-.776 1.316-.181.515-.272 1.09-.272 1.724 0 .64.09 1.216.272 1.728.181.512.44.95.776 1.312.336.363.743.641 1.22.836.477.195 1.012.292 1.604.292zm0-1.112c-.405 0-.757-.07-1.056-.208-.299-.139-.548-.337-.748-.596-.2-.259-.35-.577-.448-.956-.099-.379-.148-.808-.148-1.288s.05-.91.148-1.292c.099-.381.248-.703.448-.964s.45-.461.748-.6c.299-.139.65-.208 1.056-.208.8 0 1.397.27 1.792.808.395.539.592 1.29.592 2.256 0 .96-.197 1.708-.592 2.244-.395.536-.992.804-1.792.804zm7.04 1V5.816c.31-.347.647-.621 1.012-.824.365-.203.759-.304 1.18-.304.576 0 1.004.17 1.284.508.28.339.42.815.42 1.428v5.16h1.424v-5.16c0-.459-.059-.877-.176-1.256-.117-.379-.29-.703-.516-.972-.227-.27-.51-.477-.848-.624-.339-.147-.73-.22-1.172-.22-.57 0-1.073.12-1.508.36-.435.24-.828.555-1.18.944l-.112-.88c-.053-.197-.181-.296-.384-.296h-.848v8.104h1.424zm9.928.128c.368 0 .725-.065 1.072-.196.347-.13.643-.31.888-.54l-.416-.68c-.059-.09-.125-.136-.2-.136-.043 0-.092.02-.148.06-.056.04-.124.084-.204.132-.08.048-.175.092-.284.132-.11.04-.239.06-.388.06-.261 0-.475-.083-.64-.248-.165-.165-.248-.419-.248-.76V4.872h2.32V3.84h-2.32V1.048h-.72c-.09 0-.165.025-.224.076-.059.05-.093.116-.104.196l-.328 2.504-1.328.168v.568c0 .107.03.185.088.236.059.05.13.076.216.076h.976v4.96c0 .672.172 1.187.516 1.544.344.357.836.536 1.476.536zm4.936-.128v-5.16c.224-.55.503-.968.836-1.256.333-.288.748-.432 1.244-.432.277 0 .493.025.648.076.155.05.27.076.344.076.128 0 .21-.067.248-.2l.184-1.064c-.155-.09-.323-.161-.504-.212-.181-.05-.384-.076-.608-.076-.55 0-1.028.159-1.436.476-.408.317-.75.759-1.028 1.324l-.096-1.264c-.021-.144-.061-.245-.12-.304s-.165-.088-.32-.088h-.816v8.104h1.424zm8.304.112c.592 0 1.127-.097 1.604-.292.477-.195.883-.473 1.216-.836.333-.363.59-.8.768-1.312.179-.512.268-1.088.268-1.728 0-.635-.09-1.21-.268-1.724-.179-.515-.435-.953-.768-1.316-.333-.363-.739-.643-1.216-.84-.477-.197-1.012-.296-1.604-.296-.592 0-1.127.099-1.604.296-.477.197-.884.477-1.22.84-.336.363-.595.801-.776 1.316-.181.515-.272 1.09-.272 1.724 0 .64.09 1.216.272 1.728.181.512.44.95.776 1.312.336.363.743.641 1.22.836.477.195 1.012.292 1.604.292zm0-1.112c-.405 0-.757-.07-1.056-.208-.299-.139-.548-.337-.748-.596-.2-.259-.35-.577-.448-.956-.099-.379-.148-.808-.148-1.288s.05-.91.148-1.292c.099-.381.248-.703.448-.964s.45-.461.748-.6c.299-.139.65-.208 1.056-.208.8 0 1.397.27 1.792.808.395.539.592 1.29.592 2.256 0 .96-.197 1.708-.592 2.244-.395.536-.992.804-1.792.804zm7.2 1V0h-1.424v11.784h1.424z" transform="translate(.288 .216)"/>
    </g>
</svg>
