<svg xmlns="http://www.w3.org/2000/svg" xmlns:xlink="http://www.w3.org/1999/xlink" height="512" viewBox="0 0 510 510" width="512" xmlns:v="https://vecta.io/nano"><linearGradient id="A" gradientUnits="userSpaceOnUse"><stop offset="0" stop-color="#8a7889"/><stop offset="1" stop-color="#6e566e"/></linearGradient><linearGradient id="B" x1="139.59" x2="275.59" xlink:href="#A" y1="98.405" y2="319.738"/><linearGradient id="C" gradientUnits="userSpaceOnUse" x1="255" x2="255" y1="432.803" y2="512.706"><stop offset="0" stop-color="#ff637b"/><stop offset="1" stop-color="#e63950"/></linearGradient><linearGradient id="D" gradientUnits="userSpaceOnUse" x1="345.496" x2="277.471" y1="491.949" y2="344.07"><stop offset="0" stop-color="#e63950" stop-opacity="0"/><stop offset=".047" stop-color="#e4354b" stop-opacity=".047"/><stop offset=".467" stop-color="#d31822" stop-opacity=".467"/><stop offset=".799" stop-color="#c90709" stop-opacity=".8"/><stop offset="1" stop-color="#c50000"/></linearGradient><linearGradient id="E" gradientUnits="userSpaceOnUse"><stop offset="0" stop-color="#fce9cb"/><stop offset="1" stop-color="#ffbd95"/></linearGradient><linearGradient id="F" x1="108.364" x2="137.417" xlink:href="#E" y1="234.042" y2="263.096"/><linearGradient id="G" x1="387.101" x2="416.155" xlink:href="#E" y1="234.042" y2="263.096"/><linearGradient id="H" x1="186.343" x2="309.565" xlink:href="#E" y1="134.548" y2="329.154"/><linearGradient id="I" x1="184.041" x2="210.533" xlink:href="#A" y1="213.201" y2="239.693"/><linearGradient id="J" gradientUnits="userSpaceOnUse"><stop offset="0" stop-color="#6e566e" stop-opacity="0"/><stop offset=".047" stop-color="#6e566e" stop-opacity=".047"/><stop offset="1" stop-color="#6e566e"/></linearGradient><linearGradient id="K" x1="192.404" x2="220.52" xlink:href="#J" y1="228.694" y2="176.402"/><linearGradient id="L" x1="310.653" x2="337.145" xlink:href="#A" y1="213.201" y2="239.693"/><linearGradient id="M" x1="319.017" x2="347.133" xlink:href="#J" y1="228.694" y2="176.402"/><linearGradient id="N" gradientUnits="userSpaceOnUse"><stop offset="0" stop-color="#faa68e" stop-opacity="0"/><stop offset="1" stop-color="#c9766e"/></linearGradient><linearGradient id="O" x1="382.202" x2="344.81" xlink:href="#N" y1="312.923" y2="301.875"/><linearGradient id="P" gradientUnits="userSpaceOnUse"><stop offset="0" stop-color="#edf5ff"/><stop offset="1" stop-color="#d5e8fe"/></linearGradient><linearGradient id="Q" x1="139.489" x2="128.016" xlink:href="#P" y1="350.682" y2="371.502"/><linearGradient id="R" x1="118.801" x2="107.329" xlink:href="#P" y1="244.874" y2="259.321"/><linearGradient id="S" x1="370.511" x2="381.983" xlink:href="#P" y1="350.682" y2="371.502"/><linearGradient id="T" x1="391.199" x2="402.671" xlink:href="#P" y1="244.874" y2="259.321"/><linearGradient id="U" x1="255" x2="255" xlink:href="#N" y1="239.924" y2="453.396"/><linearGradient id="V" gradientUnits="userSpaceOnUse" x1="232.101" x2="270.236" y1="294.968" y2="363.386"><stop offset="0" stop-color="#9ae1d3"/><stop offset="1" stop-color="#80d1c1"/></linearGradient><linearGradient id="W" gradientUnits="userSpaceOnUse"><stop offset="0" stop-color="#0b799d" stop-opacity="0"/><stop offset=".174" stop-color="#117d9e" stop-opacity=".174"/><stop offset=".414" stop-color="#2389a0" stop-opacity=".414"/><stop offset=".693" stop-color="#409ca3" stop-opacity=".693"/><stop offset=".999" stop-color="#69b7a8" stop-opacity="1"/><stop offset="1" stop-color="#69b7a8"/></linearGradient><linearGradient id="X" x1="255" x2="255" xlink:href="#W" y1="279.971" y2="251.931"/><linearGradient id="Y" x1="255" x2="255" xlink:href="#P" y1="244.64" y2="263.181"/><linearGradient id="Z" x1="255" x2="255" xlink:href="#W" y1="402.62" y2="435.694"/><linearGradient id="a" x1="255" x2="255" xlink:href="#W" y1="322.71" y2="245.159"/><linearGradient id="b" x1="255" x2="255" xlink:href="#W" y1="352.641" y2="297.014"/><linearGradient id="c" x1="255" x2="255" xlink:href="#W" y1="384.939" y2="352.97"/><linearGradient id="d" x1="192.019" x2="328.019" xlink:href="#A" y1="66.189" y2="287.523"/><linearGradient id="e" gradientUnits="userSpaceOnUse" x1="397.666" x2="333.666" y1="128.544" y2="165.211"><stop offset="0" stop-color="#6e566e" stop-opacity="0"/><stop offset=".294" stop-color="#674d66" stop-opacity=".294"/><stop offset="1" stop-color="#593b56"/></linearGradient><path d="M90.934 468.62h328.132c13.54-98.333 18.525-197.312 14.96-296.12C430.55 76.21 351.353 0 255 0S79.45 76.21 75.974 172.5c-3.566 98.808 1.42 197.788 14.96 296.12z" fill="url(#B)"/><path d="M486.754 463.53c12.805 14.415 3.674 37.25-15.537 38.897C416.187 507.143 343.326 510 263.4 510c-88.483 0-168.293-3.502-224.84-9.136-18.978-1.89-28.082-24.562-15.317-38.732l.288-.32c56.824-63.133 139.197-102.82 230.83-102.82 90.65 0 172.172 38.793 228.952 100.717l3.45 3.822z" fill="url(#C)"/><path d="M486.754 463.53l-3.45-3.82c-56.78-61.925-138.3-100.717-228.952-100.717-39.844 0-77.936 7.507-112.94 21.18 1.545 6.692 4.44 13.377 6.7 20.05 1.842 5.468 4.366 10.195 9.002 13.677l96.084 96.084 10.2.017c79.935 0 152.797-2.857 207.827-7.573 19.21-1.647 28.34-24.482 15.537-38.897z" fill="url(#D)"/><path d="M115.63 280.922c-16.863 0-30.534-13.67-30.534-30.534V232.23c0-16.863 13.67-30.534 30.534-30.534s30.534 13.67 30.534 30.534v18.16c0 16.863-13.67 30.533-30.534 30.533z" fill="url(#F)"/><path d="M394.37 280.922c-16.863 0-30.534-13.67-30.534-30.534V232.23c0-16.863 13.67-30.534 30.534-30.534s30.534 13.67 30.534 30.534v18.16c-.001 16.863-13.67 30.533-30.534 30.533z" fill="url(#G)"/><path d="M255 428.583c76.292 0 139.053-60.317 141.81-136.56 1.182-32.69 1.182-65.4 0-98.09-2.757-76.242-65.517-136.56-141.81-136.56s-139.052 60.317-141.808 136.56c-1.182 32.69-1.182 65.4 0 98.09 2.756 76.242 65.516 136.56 141.808 136.56z" fill="url(#H)"/><path d="M212.148 220.855c0 11.297-9.158 20.455-20.455 20.455s-20.454-9.158-20.454-20.455 9.158-20.455 20.454-20.455 20.455 9.158 20.455 20.455z" fill="url(#I)"/><path d="M200.844 202.557a20.36 20.36 0 0 1 2.157 9.15c0 11.297-9.158 20.455-20.454 20.455-3.29 0-6.397-.778-9.15-2.157 3.358 6.703 10.3 11.305 18.297 11.305 11.297 0 20.455-9.158 20.455-20.455-.001-8.008-4.603-14.94-11.305-18.298z" fill="url(#K)"/><path d="M338.76 220.855c0 11.297-9.158 20.455-20.455 20.455s-20.454-9.158-20.454-20.455S307 200.4 318.306 200.4s20.455 9.158 20.455 20.455z" fill="url(#L)"/><path d="M327.456 202.557a20.36 20.36 0 0 1 2.157 9.15c0 11.297-9.158 20.455-20.454 20.455-3.29 0-6.397-.778-9.15-2.157 3.358 6.703 10.3 11.305 18.297 11.305 11.297 0 20.455-9.158 20.455-20.455 0-8.008-4.602-14.94-11.305-18.298z" fill="url(#M)"/><path d="M396.808 292.024a1358.47 1358.47 0 0 0 .862-43.663c-10.903 9.74-24.965 17.76-42.393 19.263 0 0 14.856 52.283 9.343 109.236 19.12-23.19 31.023-52.588 32.188-84.836z" fill="url(#O)"/><path d="M151.148 381.782h-.063c-11.306-.083-27.4-6.1-39.81-34.35a8.5 8.5 0 0 1 4.358-11.2 8.5 8.5 0 0 1 11.2 4.358c4.835 10.993 12.99 24.114 24.378 24.198a8.5 8.5 0 0 1 8.435 8.56 8.5 8.5 0 0 1-8.497 8.435z" fill="url(#Q)"/><path d="M158.56 272.92h-.034c-23.805-.093-44.906-9.9-61.022-28.367-11.97-13.714-16.985-27.44-17.193-28.018a8.5 8.5 0 0 1 5.122-10.872 8.5 8.5 0 0 1 10.864 5.099c.042.116 4.355 11.714 14.385 23.04 12.935 14.606 29.055 22.05 47.9 22.122a8.5 8.5 0 0 1 8.465 8.531 8.5 8.5 0 0 1-8.497 8.466z" fill="url(#R)"/><path d="M358.852 381.782h.064c11.306-.083 27.4-6.1 39.81-34.35a8.5 8.5 0 0 0-4.358-11.2 8.5 8.5 0 0 0-11.2 4.358c-4.835 10.993-12.99 24.114-24.378 24.198a8.5 8.5 0 0 0-8.435 8.56 8.5 8.5 0 0 0 8.496 8.435z" fill="url(#S)"/><path d="M351.44 272.92h.034c23.805-.093 44.906-9.9 61.022-28.367 11.97-13.714 16.985-27.44 17.193-28.018a8.5 8.5 0 0 0-5.122-10.872 8.5 8.5 0 0 0-10.864 5.099c-.042.116-4.355 11.714-14.385 23.04-12.935 14.606-29.055 22.05-47.9 22.122a8.5 8.5 0 0 0-8.465 8.531 8.5 8.5 0 0 0 8.497 8.466z" fill="url(#T)"/><path d="M263.75 332.01h-17.5c-14.023 0-24.95-12.164-23.45-26.106l9.15-85.048h46.098l9.15 85.048c1.5 13.942-9.424 26.106-23.448 26.106z" fill="url(#U)"/><use xlink:href="#g" fill="url(#V)"/><use xlink:href="#g" fill="url(#X)"/><path d="M152.053 273.05c68.368-14.628 137.526-14.628 205.895 0a38.52 38.52 0 0 1 5.044 1.445c1.44.52 2.85-.848 2.362-2.3-.004-.013-.01-.026-.013-.04-3.32-9.85-11.962-17.358-22.782-19.673-58.15-12.44-116.97-12.44-175.117 0-10.82 2.315-19.463 9.824-22.782 19.673-.004.013-.01.026-.013.04-.488 1.45.923 2.82 2.362 2.3a38.48 38.48 0 0 1 5.044-1.445z" fill="url(#Y)"/><path d="M141.958 382.432a212.93 212.93 0 0 0 5.144 17.789c3.245 9.63 11.697 16.974 22.278 19.238 56.86 12.166 114.378 12.166 171.24 0 10.58-2.264 19.033-9.607 22.278-19.237a212.82 212.82 0 0 0 5.144-17.789H141.958z" fill="url(#Z)"/><path d="M340.62 419.458c10.58-2.264 19.033-9.607 22.278-19.237 11.237-33.35 13.682-66.974 7.337-100.445-76.55-15.826-153.922-15.826-230.47 0-6.345 33.47-3.9 67.096 7.337 100.445 3.245 9.63 11.697 16.974 22.278 19.238 56.862 12.165 114.38 12.165 171.24-.001z" fill="url(#a)"/><path d="M340.62 419.458c10.58-2.264 19.033-9.607 22.278-19.237 6.712-19.92 10.285-39.94 10.723-59.965-78.782-16.774-158.463-16.773-237.243 0 .44 20.026 4.012 40.044 10.724 59.965 3.245 9.63 11.697 16.974 22.278 19.238 56.86 12.165 114.378 12.165 171.24-.001z" fill="url(#b)"/><path d="M340.62 419.458c10.58-2.264 19.033-9.607 22.278-19.237 2.04-6.055 3.786-12.118 5.246-18.19-75.17-15.255-151.12-15.255-226.288 0a212.86 212.86 0 0 0 5.246 18.189c3.245 9.63 11.697 16.974 22.278 19.238 56.86 12.165 114.378 12.165 171.24-.001z" fill="url(#c)"/><path d="M432.83 201.696l-.76-27.93C428.664 78.31 350.517 2.586 255 2.586c-95.25 0-173.605 75.306-177.046 170.492-.297 8.202-.517 25.4-.694 33.614l168.502-23.144c41.598-5.713 79.22-27.718 104.594-61.173l17.926 57.755a30.65 30.65 0 0 0 22.967 20.91c2.074.436 4.188.656 6.308.656z" fill="url(#d)"/><path d="M374.156 48.714c-2.93 37.404-23.8 73.66-23.8 73.66l17.926 57.755a30.65 30.65 0 0 0 22.967 20.91c2.074.436 4.188.656 6.308.656h35.274l-.76-27.93c-1.77-49.652-23.772-93.958-57.914-125.053z" fill="url(#e)"/><defs ><path id="g" d="M362.898 271.88c-3.245-9.63-11.697-16.974-22.278-19.238-56.862-12.166-114.38-12.166-171.24 0-10.58 2.264-19.033 9.607-22.278 19.238-14.365 42.633-14.363 85.712 0 128.34 3.245 9.63 11.697 16.974 22.278 19.238 56.86 12.166 114.378 12.166 171.24 0 10.58-2.264 19.033-9.607 22.278-19.237 14.363-42.63 14.365-85.708 0-128.34z"/></defs></svg>